<?xml version="1.0" encoding="utf-8"?>
<!-- Generator: Adobe Illustrator 16.0.0, SVG Export Plug-In . SVG Version: 6.00 Build 0)  -->
<!DOCTYPE svg PUBLIC "-//W3C//DTD SVG 1.1//EN" "http://www.w3.org/Graphics/SVG/1.1/DTD/svg11.dtd">
<svg version="1.1" id="Layer_1" xmlns="http://www.w3.org/2000/svg" xmlns:xlink="http://www.w3.org/1999/xlink" x="0px" y="0px"
	 width="1560.108px" height="905.526px" viewBox="0 0 1560.108 905.526" enable-background="new 0 0 1560.108 905.526"
	 xml:space="preserve">
<path d="M70.741,869.791c-0.606-11.341-1.334-25.099-1.334-35.121h-0.238c-2.901,9.41-6.161,19.676-10.26,30.901L44.549,905.04
	h-7.966L23.3,866.29c-3.866-11.586-7.005-21.967-9.29-31.62h-0.252c-0.238,10.138-0.845,23.663-1.567,35.966l-2.168,34.891H0
	l5.671-81.355h13.404l13.879,39.353c3.381,10.014,6.04,18.95,8.208,27.392H41.4c2.174-8.209,5.08-17.135,8.693-27.392L64.58,824.17
	h13.404l5.064,81.355H72.667L70.741,869.791z"/>
<path d="M154.981,898.279c16.655,0,26.07-15.332,26.07-33.794c0-16.184-8.446-33.086-25.949-33.086
	c-17.508,0-26.192,16.31-26.192,33.939c0,17.135,9.411,32.94,25.954,32.94H154.981z M154.496,906.855
	c-21.612,0-36.573-16.659-36.573-41.284c0-25.828,15.926-42.729,37.655-42.729c22.335,0,36.699,17.019,36.699,41.157
	c0,27.885-17.018,42.856-37.664,42.856H154.496z"/>
<path d="M235.119,824.161v48.299c0,18.095,8.087,25.828,18.954,25.828c11.944,0,19.792-7.977,19.792-25.828v-48.299h10.62v47.561
	c0,24.994-13.152,35.125-30.776,35.125c-16.664,0-29.208-9.412-29.208-34.756v-47.93H235.119z"/>
<path d="M321.412,905.526v-81.365h11.584l25.95,41.167c5.923,9.538,10.75,17.988,14.495,26.44l0.359-0.117
	c-0.965-10.867-1.203-20.772-1.203-33.327v-34.163h9.896v81.365h-10.62l-25.842-41.284c-5.662-9.052-11.1-18.347-15.083-27.157
	l-0.369,0.117c0.607,10.266,0.729,20.034,0.729,33.56v34.765H321.412z"/>
<polygon points="437.404,833.097 412.663,833.097 412.663,824.17 472.891,824.17 472.891,833.097 448.023,833.097 448.023,905.526 
	437.404,905.526 "/>
<rect x="502.944" y="824.161" width="10.62" height="81.365"/>
<path d="M553.028,905.526v-81.365h11.585l25.958,41.167c5.914,9.538,10.74,17.988,14.485,26.44l0.359-0.117
	c-0.965-10.867-1.203-20.772-1.203-33.327v-34.163h9.896v81.365H603.49l-25.833-41.284c-5.671-9.052-11.109-18.347-15.092-27.157
	l-0.358,0.117c0.596,10.266,0.718,20.034,0.718,33.56v34.765H553.028z"/>
<path d="M713.195,901.897c-4.706,1.813-14.117,4.474-25.106,4.474c-12.307,0-22.451-3.134-30.421-10.752
	c-7.005-6.752-11.347-17.619-11.347-30.291c0-24.265,16.781-42.001,44.064-42.001c9.421,0,16.901,2.037,20.399,3.744l-2.654,8.559
	c-4.351-2.037-9.775-3.494-17.983-3.494c-19.803,0-32.717,12.305-32.717,32.708c0,20.646,12.307,32.832,31.388,32.832
	c6.874,0,11.584-0.96,13.996-2.172v-24.267h-16.412v-8.441h26.793V901.897z"/>
<path d="M800.449,892.728c4.715,3.017,11.468,5.308,18.706,5.308c10.75,0,17.018-5.551,17.018-13.875
	c0-7.49-4.337-11.953-15.329-16.058c-13.273-4.832-21.481-11.827-21.481-23.17c0-12.681,10.508-22.092,26.312-22.092
	c8.219,0,14.36,1.931,17.862,3.978l-2.892,8.578c-2.532-1.572-7.965-3.861-15.329-3.861c-11.109,0-15.33,6.637-15.33,12.186
	c0,7.597,4.948,11.341,16.174,15.688c13.758,5.434,20.646,11.964,20.646,23.897c0,12.565-9.178,23.557-28.369,23.557
	c-7.84,0-16.417-2.424-20.764-5.316L800.449,892.728z"/>
<path d="M917.052,898.279c16.649,0,26.07-15.332,26.07-33.794c0-16.184-8.451-33.086-25.954-33.086s-26.196,16.31-26.196,33.939
	c0,17.135,9.421,32.94,25.954,32.94H917.052z M916.567,906.855c-21.607,0-36.578-16.659-36.578-41.284
	c0-25.828,15.932-42.729,37.665-42.729c22.335,0,36.694,17.019,36.694,41.157c0,27.885-17.027,42.856-37.665,42.856H916.567z"/>
<polygon points="988.986,824.161 999.6,824.161 999.6,896.715 1034.364,896.715 1034.364,905.526 988.986,905.526 "/>
<path d="M1075.162,824.161v48.299c0,18.095,8.082,25.828,18.949,25.828c11.943,0,19.793-7.977,19.793-25.828v-48.299h10.624v47.561
	c0,24.994-13.156,35.125-30.786,35.125c-16.648,0-29.213-9.412-29.213-34.756v-47.93H1075.162z"/>
<polygon points="1179.318,833.097 1154.567,833.097 1154.567,824.17 1214.799,824.17 1214.799,833.097 1189.942,833.097 
	1189.942,905.526 1179.318,905.526 "/>
<rect x="1247.263" y="824.161" width="10.615" height="81.365"/>
<path d="M1332.004,898.279c16.649,0,26.07-15.332,26.07-33.794c0-16.184-8.45-33.086-25.954-33.086
	c-17.503,0-26.196,16.31-26.196,33.939c0,17.135,9.421,32.94,25.944,32.94H1332.004z M1331.519,906.855
	c-21.616,0-36.578-16.659-36.578-41.284c0-25.828,15.932-42.729,37.665-42.729c22.335,0,36.694,17.019,36.694,41.157
	c0,27.885-17.027,42.856-37.664,42.856H1331.519z"/>
<path d="M1404.054,905.526v-81.365h11.584l25.944,41.167c5.919,9.538,10.752,17.988,14.496,26.44l0.369-0.117
	c-0.971-10.867-1.224-20.772-1.224-33.327v-34.163h9.897v81.365h-10.615l-25.827-41.284c-5.686-9.052-11.119-18.347-15.098-27.157
	l-0.358,0.117c0.61,10.266,0.728,20.034,0.728,33.56v34.765H1404.054z"/>
<path d="M1500.846,892.728c4.715,3.017,11.467,5.308,18.705,5.308c10.752,0,17.02-5.551,17.02-13.875
	c0-7.49-4.337-11.953-15.332-16.058c-13.271-4.832-21.48-11.827-21.48-23.17c0-12.681,10.507-22.092,26.314-22.092
	c8.207,0,14.368,1.931,17.871,3.978l-2.891,8.578c-2.543-1.572-7.977-3.861-15.332-3.861c-11.119,0-15.348,6.637-15.348,12.186
	c0,7.597,4.967,11.341,16.184,15.688c13.769,5.434,20.646,11.964,20.646,23.897c0,12.565-9.178,23.557-28.371,23.557
	c-7.849,0-16.414-2.424-20.762-5.316L1500.846,892.728z"/>
<path fill="#003D79" d="M727.36,358.456h75.649v-71.133H727.36V358.456z M668.146,194.436c0-40.284,25.983-60.999,62.255-60.999
	h69.581c36.093,0,62.212,20.715,62.212,60.999v144.381c0,40.294-26.119,60.99-62.212,60.99h-69.581
	c-36.272,0-62.255-20.696-62.255-60.99v-92.896h134.863v-71.118H727.36v38.359h-59.214V194.436z"/>
<path fill="#003D79" d="M259.859,399.832l-0.039-131.89c0-48.265-29.825-73.66-72.375-73.66H60.442V49.526h1480.551V0H73.782
	C31.232,0,1.417,24.766,1.417,73.03v107.323C1.417,228.588,31.232,254,73.782,254h126.995v145.702L259.859,399.832z"/>
<path fill="#003D79" d="M619.891,151.741c-9.804-10.571-23.794-16.547-40.386-17.834l-0.344-0.475h-51.447l-0.35,0.475
	c-16.601,1.287-30.568,7.263-40.376,17.834c-11.672-12.171-28.753-18.309-49.128-18.309h-39.115v-0.083h-58.19v0.083h-34.526
	v266.364h59.185V174.784h75.645v225.013h59.218V174.784h75.655v225.013h59.214v-205.38
	C634.945,175.972,629.293,161.865,619.891,151.741"/>
<path fill="#003D79" d="M951.185,173.566h55.275v-40.157h-52.238c-36.394,0-62.202,20.675-62.202,61.008v38.612h-0.078v166.76
	h59.243V173.566z"/>
<path fill="#003D79" d="M1087.775,359.76l-0.02-177.83l-0.038-8.664h43.379v-40.095h-43.418V95.879h-59.155v204.439h0.049v38.587
	c0,40.333,25.856,61.028,62.23,61.028h58.583V359.76H1087.775z"/>
<rect x="1.252" y="326.476" fill="#003D79" width="59.253" height="73.321"/>
<path fill="#7399C6" d="M1091.268,690.928h75.649v-71.138h-75.649V690.928z M1032.064,526.899c0-40.275,25.982-60.999,62.231-60.999
	h69.604c36.074,0,62.222,20.724,62.222,60.999V671.3c0,40.312-26.147,60.998-62.222,60.998h-69.604
	c-36.249,0-62.231-20.686-62.231-60.998v-92.9h134.854v-71.129h-75.649v38.354h-59.204V526.899z"/>
<path fill="#7399C6" d="M951.535,692.083l-0.039-177.816l-0.02-8.674h43.38v-40.114h-43.438v-37.276h-59.146v204.435h0.059v38.605
	c0,40.332,25.847,60.999,62.212,60.999h52.257v-40.158H951.535z"/>
<path fill="#7399C6" d="M802.214,507.911h-75.393v70.877h75.393V507.911z M861.224,671.388c0,40.176-25.886,60.794-61.998,60.794
	H729.82c-35.971,0-62.023-20.618-62.023-60.794V527.461c0-40.188,26.052-60.8,62.023-60.8h69.406
	c36.112,0,61.998,20.612,61.998,60.8v92.59H726.822v70.877h75.393V652.72h59.01V671.388z"/>
<path fill="#7399C6" d="M1497.836,572.267h-72.67v-65.123h115.78v-41.375h-112.753c-36.112,0-62.23,20.689-62.23,61.033v37.616
	c0,40.353,26.118,61.066,62.23,61.066h72.681v65.395l-55.294,0.049H1324.98V400.138h-58.99v271.25
	c0,40.186,26.041,60.794,61.998,60.794l117.515,0.059l52.334,0.058c36.289,0,62.271-20.686,62.271-61.018v-37.946
	C1560.108,592.992,1534.125,572.267,1497.836,572.267"/>
<path fill="#7399C6" d="M619.848,483.859c-9.805-10.576-23.79-16.562-40.386-17.833l-0.344-0.494h-51.466l-0.34,0.494
	c-16.592,1.271-30.587,7.257-40.376,17.833c-11.653-12.196-28.744-18.327-49.118-18.327h-39.125v-0.059h-58.19v0.059h-34.526
	v225.435H1.203v41.294h304.772v0.038h59.194V506.892h75.659v225.406h59.204V506.892h75.655v225.406h59.204V526.531
	C634.891,508.095,629.24,493.968,619.848,483.859"/>
<path fill="#7399C6" d="M1186.274,370.675v6.598h4.065c3.58,0,8.509,0.587,8.509-3.002c0-3.338-2.813-3.595-6.006-3.595H1186.274z
	 M1202.312,393.307h-4.376l-6.762-12.22h-4.9v12.22h-3.842v-26.459h11.129c4.803,0,9.11,1.432,9.11,7.006
	c0,5.196-3.532,7.121-7.073,7.233L1202.312,393.307z M1171.779,379.893c0,11.07,8.994,19.701,19.744,19.701
	c10.789,0,19.745-8.63,19.745-19.701c0-11.124-8.956-19.701-19.745-19.701C1180.773,360.192,1171.779,368.77,1171.779,379.893
	 M1167.937,379.893c0-13.093,10.43-23.524,23.586-23.524c13.186,0,23.606,10.431,23.606,23.524
	c0,13.107-10.421,23.538-23.606,23.538C1178.367,403.431,1167.937,393,1167.937,379.893"/>
</svg>
